<svg width="1635" height="217" viewBox="0 0 1635 217" fill="none" xmlns="http://www.w3.org/2000/svg">
<circle cx="15" cy="59" r="15" fill="black"/>
<path d="M15 96.5C15 114.5 22.5 148 55 148C55 135.866 55 124.624 55 114.5M126.5 148C126.5 135.037 124.633 123.962 121.443 114.5M55 114.5C55 80.4033 55 59 55 59C55 59 148.5 57.4999 121.443 114.5M55 114.5C55 114.5 89.0518 114.5 121.443 114.5" stroke="black" stroke-width="30" stroke-linecap="round"/>
<path d="M191.122 163V45.472H221.168V163H191.122ZM240.163 163V75.518H267.221L268.881 83.486C271.648 80.6087 274.581 78.506 277.679 77.178C280.889 75.7393 283.987 74.7987 286.975 74.356C289.963 73.9133 292.509 73.692 294.611 73.692C302.801 73.692 309.219 75.5733 313.867 79.336C318.626 83.0987 322.001 88.0787 323.993 94.276C325.985 100.473 326.981 107.279 326.981 114.694V163H297.599V117.184C297.599 115.413 297.378 113.587 296.935 111.706C296.603 109.714 295.939 107.888 294.943 106.228C294.058 104.568 292.785 103.24 291.125 102.244C289.465 101.137 287.307 100.584 284.651 100.584C281.221 100.584 278.343 101.359 276.019 102.908C273.806 104.457 272.146 106.56 271.039 109.216C270.043 111.761 269.545 114.639 269.545 117.848V163H240.163ZM379.812 164.162C369.52 164.162 361.663 161.229 356.24 155.364C350.817 149.499 348.106 141.641 348.106 131.792V101.746H335.822V75.518H348.106V53.606H377.488V75.518H403.716V101.746H377.488V124.986C377.488 127.421 377.875 129.523 378.65 131.294C379.535 132.954 380.808 134.227 382.468 135.112C384.239 135.997 386.397 136.44 388.942 136.44C391.709 136.44 393.977 136.053 395.748 135.278C397.519 134.393 398.957 133.507 400.064 132.622L408.032 155.696C405.487 157.799 402.499 159.514 399.068 160.842C395.748 162.059 392.373 162.889 388.942 163.332C385.622 163.885 382.579 164.162 379.812 164.162ZM456.413 164.328C447.449 164.328 439.592 162.557 432.841 159.016C426.201 155.364 421 150.218 417.237 143.578C413.585 136.938 411.759 129.025 411.759 119.84C411.759 110.655 413.641 102.631 417.403 95.77C421.166 88.798 426.423 83.3753 433.173 79.502C439.924 75.6287 447.781 73.692 456.745 73.692C463.164 73.692 468.919 74.688 474.009 76.68C479.1 78.672 483.471 81.5493 487.123 85.312C490.775 89.0747 493.542 93.612 495.423 98.924C497.415 104.236 498.411 110.212 498.411 116.852C498.411 118.733 498.301 120.559 498.079 122.33C497.969 123.99 497.692 125.761 497.249 127.642H440.809C441.031 129.745 441.695 131.737 442.801 133.618C444.019 135.499 445.679 136.993 447.781 138.1C449.884 139.207 452.54 139.76 455.749 139.76C458.405 139.76 460.674 139.483 462.555 138.93C464.547 138.266 466.152 137.436 467.369 136.44C468.587 135.444 469.361 134.448 469.693 133.452H498.411C496.862 140.645 493.985 146.566 489.779 151.214C485.685 155.751 480.705 159.071 474.839 161.174C469.085 163.277 462.943 164.328 456.413 164.328ZM441.307 108.552H470.855C470.855 106.892 470.357 105.177 469.361 103.406C468.476 101.525 466.927 99.9753 464.713 98.758C462.611 97.5407 459.789 96.932 456.247 96.932C452.817 96.932 449.995 97.5407 447.781 98.758C445.568 99.9753 443.908 101.525 442.801 103.406C441.805 105.177 441.307 106.892 441.307 108.552ZM510.724 163V75.518H537.782L539.442 83.486C542.209 80.6087 545.141 78.506 548.24 77.178C551.449 75.7393 554.548 74.7987 557.536 74.356C560.524 73.9133 563.069 73.692 565.172 73.692C573.361 73.692 579.78 75.5733 584.428 79.336C589.187 83.0987 592.562 88.0787 594.554 94.276C596.546 100.473 597.542 107.279 597.542 114.694V163H568.16V117.184C568.16 115.413 567.939 113.587 567.496 111.706C567.164 109.714 566.5 107.888 565.504 106.228C564.619 104.568 563.346 103.24 561.686 102.244C560.026 101.137 557.868 100.584 555.212 100.584C551.781 100.584 548.904 101.359 546.58 102.908C544.367 104.457 542.707 106.56 541.6 109.216C540.604 111.761 540.106 114.639 540.106 117.848V163H510.724ZM648.547 164.328C644.231 164.328 639.859 163.83 635.433 162.834C631.006 161.838 626.856 160.178 622.983 157.854C619.22 155.53 616.011 152.376 613.355 148.392C610.699 144.297 608.928 139.207 608.043 133.12H637.757C638.199 134.559 638.974 135.831 640.081 136.938C641.298 138.045 642.737 138.93 644.397 139.594C646.167 140.147 648.049 140.424 650.041 140.424C651.369 140.424 652.531 140.313 653.527 140.092C654.633 139.871 655.574 139.539 656.349 139.096C657.123 138.543 657.677 137.934 658.009 137.27C658.451 136.606 658.673 135.887 658.673 135.112C658.673 133.563 658.064 132.456 656.847 131.792C655.629 131.017 653.969 130.464 651.867 130.132C649.764 129.689 647.385 129.191 644.729 128.638C640.634 127.753 636.207 126.646 631.449 125.318C626.801 123.879 622.872 122.109 619.663 120.006C618.003 118.899 616.564 117.682 615.347 116.354C614.24 114.915 613.299 113.366 612.525 111.706C611.861 110.046 611.363 108.331 611.031 106.56C610.699 104.789 610.533 102.908 610.533 100.916C610.533 95.8253 611.639 91.5647 613.853 88.134C616.177 84.5927 619.109 81.7707 622.651 79.668C626.303 77.5653 630.287 76.0713 634.603 75.186C639.029 74.19 643.345 73.692 647.551 73.692C653.748 73.692 659.503 74.688 664.815 76.68C670.237 78.672 674.719 81.8813 678.261 86.308C681.913 90.7347 684.181 96.6 685.067 103.904H656.681C656.459 101.912 655.353 100.363 653.361 99.256C651.479 98.1493 649.155 97.596 646.389 97.596C645.282 97.596 644.231 97.7067 643.235 97.928C642.349 98.1493 641.519 98.426 640.745 98.758C640.081 99.09 639.527 99.5327 639.085 100.086C638.753 100.639 638.587 101.248 638.587 101.912C638.587 102.355 638.697 102.853 638.919 103.406C639.251 103.959 639.804 104.513 640.579 105.066C641.353 105.509 642.405 105.951 643.733 106.394C647.385 107.279 650.815 108.054 654.025 108.718C657.345 109.382 660.665 110.046 663.985 110.71C667.637 111.374 671.233 112.536 674.775 114.196C678.316 115.745 681.249 118.125 683.573 121.334C686.007 124.543 687.225 129.025 687.225 134.78C687.225 140.424 686.063 145.183 683.739 149.056C681.415 152.819 678.316 155.807 674.443 158.02C670.68 160.233 666.53 161.838 661.993 162.834C657.455 163.83 652.973 164.328 648.547 164.328ZM739.456 164.328C730.492 164.328 722.635 162.557 715.884 159.016C709.244 155.364 704.043 150.218 700.28 143.578C696.628 136.938 694.802 129.025 694.802 119.84C694.802 110.655 696.684 102.631 700.446 95.77C704.209 88.798 709.466 83.3753 716.216 79.502C722.967 75.6287 730.824 73.692 739.788 73.692C746.207 73.692 751.962 74.688 757.052 76.68C762.143 78.672 766.514 81.5493 770.166 85.312C773.818 89.0747 776.585 93.612 778.466 98.924C780.458 104.236 781.454 110.212 781.454 116.852C781.454 118.733 781.344 120.559 781.122 122.33C781.012 123.99 780.735 125.761 780.292 127.642H723.852C724.074 129.745 724.738 131.737 725.844 133.618C727.062 135.499 728.722 136.993 730.824 138.1C732.927 139.207 735.583 139.76 738.792 139.76C741.448 139.76 743.717 139.483 745.598 138.93C747.59 138.266 749.195 137.436 750.412 136.44C751.63 135.444 752.404 134.448 752.736 133.452H781.454C779.905 140.645 777.028 146.566 772.822 151.214C768.728 155.751 763.748 159.071 757.882 161.174C752.128 163.277 745.986 164.328 739.456 164.328ZM724.35 108.552H753.898C753.898 106.892 753.4 105.177 752.404 103.406C751.519 101.525 749.97 99.9753 747.756 98.758C745.654 97.5407 742.832 96.932 739.29 96.932C735.86 96.932 733.038 97.5407 730.824 98.758C728.611 99.9753 726.951 101.525 725.844 103.406C724.848 105.177 724.35 106.892 724.35 108.552ZM793.767 163V45.472H823.149V163H793.767ZM877.839 204.168C871.089 204.168 864.449 203.283 857.919 201.512C851.39 199.852 845.082 197.085 838.995 193.212L847.959 169.474C850.947 171.687 854.544 173.458 858.749 174.786C863.065 176.114 868.045 176.778 873.689 176.778C881.879 176.778 888.076 175.173 892.281 171.964C896.597 168.865 898.755 163.775 898.755 156.692V156.028C896.874 158.131 894.605 159.791 891.949 161.008C889.293 162.225 886.527 163.055 883.649 163.498C880.772 164.051 877.95 164.328 875.183 164.328C866.883 164.328 860.133 162.557 854.931 159.016C849.841 155.364 846.078 150.439 843.643 144.242C841.319 138.045 840.157 131.073 840.157 123.326V75.518H869.373V118.014C869.373 120.006 869.484 122.164 869.705 124.488C870.037 126.701 870.701 128.859 871.697 130.962C872.693 132.954 874.187 134.614 876.179 135.942C878.282 137.159 881.049 137.768 884.479 137.768C889.127 137.768 892.392 136.661 894.273 134.448C896.265 132.124 897.427 129.357 897.759 126.148C898.202 122.939 898.423 119.84 898.423 116.852V75.518H927.805V142.084C927.805 151.159 927.086 159.459 925.647 166.984C924.319 174.62 921.829 181.205 918.177 186.738C914.636 192.271 909.601 196.532 903.071 199.52C896.542 202.619 888.131 204.168 877.839 204.168ZM994.86 163V45.472H1044.49C1049.81 45.472 1055.23 45.97 1060.76 46.966C1066.3 47.962 1071.44 49.8433 1076.2 52.61C1080.96 55.266 1084.78 59.1393 1087.65 64.23C1090.53 69.3207 1091.97 75.9607 1091.97 84.15C1091.97 89.2407 1091.2 94.0547 1089.65 98.592C1088.1 103.019 1085.61 106.947 1082.18 110.378C1078.86 113.809 1074.43 116.575 1068.9 118.678L1096.12 163H1061.92L1039.35 123.326H1024.91V163H994.86ZM1024.91 96.932H1044.66C1047.54 96.932 1050.03 96.6553 1052.13 96.102C1054.34 95.5487 1056.17 94.774 1057.61 93.778C1059.16 92.6713 1060.32 91.3433 1061.09 89.794C1061.87 88.2447 1062.26 86.4187 1062.26 84.316C1062.26 81.2173 1061.48 78.8933 1059.93 77.344C1058.38 75.7947 1056.34 74.7433 1053.79 74.19C1051.24 73.6367 1048.37 73.36 1045.16 73.36H1024.91V96.932ZM1149.11 164.328C1140.14 164.328 1132.29 162.557 1125.53 159.016C1118.89 155.364 1113.69 150.218 1109.93 143.578C1106.28 136.938 1104.45 129.025 1104.45 119.84C1104.45 110.655 1106.33 102.631 1110.1 95.77C1113.86 88.798 1119.12 83.3753 1125.87 79.502C1132.62 75.6287 1140.47 73.692 1149.44 73.692C1155.86 73.692 1161.61 74.688 1166.7 76.68C1171.79 78.672 1176.16 81.5493 1179.82 85.312C1183.47 89.0747 1186.24 93.612 1188.12 98.924C1190.11 104.236 1191.1 110.212 1191.1 116.852C1191.1 118.733 1190.99 120.559 1190.77 122.33C1190.66 123.99 1190.39 125.761 1189.94 127.642H1133.5C1133.72 129.745 1134.39 131.737 1135.49 133.618C1136.71 135.499 1138.37 136.993 1140.47 138.1C1142.58 139.207 1145.23 139.76 1148.44 139.76C1151.1 139.76 1153.37 139.483 1155.25 138.93C1157.24 138.266 1158.85 137.436 1160.06 136.44C1161.28 135.444 1162.05 134.448 1162.39 133.452H1191.1C1189.56 140.645 1186.68 146.566 1182.47 151.214C1178.38 155.751 1173.4 159.071 1167.53 161.174C1161.78 163.277 1155.64 164.328 1149.11 164.328ZM1134 108.552H1163.55C1163.55 106.892 1163.05 105.177 1162.05 103.406C1161.17 101.525 1159.62 99.9753 1157.41 98.758C1155.3 97.5407 1152.48 96.932 1148.94 96.932C1145.51 96.932 1142.69 97.5407 1140.47 98.758C1138.26 99.9753 1136.6 101.525 1135.49 103.406C1134.5 105.177 1134 106.892 1134 108.552ZM1203.42 163V45.472H1232.8V163H1203.42ZM1276.2 164.328C1272.11 164.328 1268.23 163.775 1264.58 162.668C1260.93 161.561 1257.67 159.901 1254.79 157.688C1252.02 155.475 1249.81 152.708 1248.15 149.388C1246.49 146.068 1245.66 142.139 1245.66 137.602C1245.66 130.962 1247.04 125.761 1249.81 121.998C1252.69 118.235 1256.5 115.469 1261.26 113.698C1266.13 111.927 1271.61 110.821 1277.7 110.378C1283.89 109.825 1290.31 109.548 1296.95 109.548H1300.94C1300.94 107.445 1300.44 105.564 1299.44 103.904C1298.45 102.244 1297.01 100.916 1295.13 99.92C1293.36 98.924 1291.14 98.426 1288.49 98.426C1286.6 98.426 1284.78 98.7027 1283.01 99.256C1281.24 99.8093 1279.74 100.584 1278.53 101.58C1277.42 102.465 1276.76 103.572 1276.53 104.9H1247.32C1247.98 99.4773 1249.59 94.8293 1252.13 90.956C1254.68 86.972 1257.89 83.7627 1261.76 81.328C1265.63 78.7827 1269.95 76.9013 1274.71 75.684C1279.58 74.4667 1284.61 73.858 1289.81 73.858C1302.65 73.858 1312.33 77.4547 1318.86 84.648C1325.5 91.7307 1328.82 102.189 1328.82 116.022V163H1301.77V151.546C1298.89 155.862 1295.62 158.905 1291.97 160.676C1288.43 162.447 1285.17 163.498 1282.18 163.83C1279.3 164.162 1277.31 164.328 1276.2 164.328ZM1284.17 141.918C1286.94 141.918 1289.59 141.254 1292.14 139.926C1294.79 138.487 1296.95 136.717 1298.61 134.614C1300.38 132.511 1301.27 130.409 1301.27 128.306V127.642H1284.83C1283.51 127.642 1282.23 127.808 1281.02 128.14C1279.8 128.361 1278.69 128.749 1277.7 129.302C1276.81 129.855 1276.09 130.575 1275.54 131.46C1274.98 132.345 1274.71 133.452 1274.71 134.78C1274.71 136.329 1275.1 137.657 1275.87 138.764C1276.76 139.76 1277.92 140.535 1279.36 141.088C1280.79 141.641 1282.4 141.918 1284.17 141.918ZM1336.49 163L1366.7 118.346L1338.15 75.518H1371.85L1385.79 99.256L1399.57 75.518H1432.44L1403.55 118.844L1434.43 163H1400.4L1384.79 137.436L1369.02 163H1336.49ZM1481.92 164.328C1472.95 164.328 1465.1 162.557 1458.35 159.016C1451.71 155.364 1446.5 150.218 1442.74 143.578C1439.09 136.938 1437.26 129.025 1437.26 119.84C1437.26 110.655 1439.14 102.631 1442.91 95.77C1446.67 88.798 1451.93 83.3753 1458.68 79.502C1465.43 75.6287 1473.29 73.692 1482.25 73.692C1488.67 73.692 1494.42 74.688 1499.51 76.68C1504.6 78.672 1508.98 81.5493 1512.63 85.312C1516.28 89.0747 1519.05 93.612 1520.93 98.924C1522.92 104.236 1523.92 110.212 1523.92 116.852C1523.92 118.733 1523.8 120.559 1523.58 122.33C1523.47 123.99 1523.2 125.761 1522.75 127.642H1466.31C1466.53 129.745 1467.2 131.737 1468.31 133.618C1469.52 135.499 1471.18 136.993 1473.29 138.1C1475.39 139.207 1478.04 139.76 1481.25 139.76C1483.91 139.76 1486.18 139.483 1488.06 138.93C1490.05 138.266 1491.66 137.436 1492.87 136.44C1494.09 135.444 1494.87 134.448 1495.2 133.452H1523.92C1522.37 140.645 1519.49 146.566 1515.28 151.214C1511.19 155.751 1506.21 159.071 1500.34 161.174C1494.59 163.277 1488.45 164.328 1481.92 164.328ZM1466.81 108.552H1496.36C1496.36 106.892 1495.86 105.177 1494.87 103.406C1493.98 101.525 1492.43 99.9753 1490.22 98.758C1488.11 97.5407 1485.29 96.932 1481.75 96.932C1478.32 96.932 1475.5 97.5407 1473.29 98.758C1471.07 99.9753 1469.41 101.525 1468.31 103.406C1467.31 105.177 1466.81 106.892 1466.81 108.552ZM1572.91 164.328C1563.95 164.328 1556.48 162.281 1550.5 158.186C1544.64 153.981 1540.21 148.447 1537.22 141.586C1534.35 134.725 1532.91 127.199 1532.91 119.01C1532.91 110.046 1534.57 102.189 1537.89 95.438C1541.21 88.5767 1546.02 83.2647 1552.33 79.502C1558.64 75.6287 1566.33 73.692 1575.4 73.692C1578.39 73.692 1581.21 74.024 1583.87 74.688C1586.64 75.2413 1589.18 76.1267 1591.51 77.344C1593.83 78.4507 1595.77 79.8893 1597.32 81.66V45.472H1626.7V163H1597.98V155.364C1595.88 157.356 1593.5 159.016 1590.84 160.344C1588.3 161.672 1585.53 162.668 1582.54 163.332C1579.55 163.996 1576.34 164.328 1572.91 164.328ZM1579.39 137.602C1583.81 137.602 1587.3 136.717 1589.85 134.946C1592.5 133.065 1594.38 130.741 1595.49 127.974C1596.71 125.097 1597.32 122.164 1597.32 119.176C1597.32 116.077 1596.71 113.145 1595.49 110.378C1594.38 107.501 1592.5 105.177 1589.85 103.406C1587.3 101.525 1583.87 100.584 1579.55 100.584C1575.13 100.584 1571.64 101.58 1569.1 103.572C1566.55 105.564 1564.72 108.054 1563.62 111.042C1562.62 113.919 1562.12 116.797 1562.12 119.674C1562.12 121.887 1562.4 124.101 1562.95 126.314C1563.62 128.417 1564.61 130.353 1565.94 132.124C1567.38 133.784 1569.21 135.112 1571.42 136.108C1573.63 137.104 1576.29 137.602 1579.39 137.602Z" fill="black"/>
</svg>
